<svg width="32" height="32" viewBox="0 0 32 32" fill="none" xmlns="http://www.w3.org/2000/svg">
  <path d="M9 11V14C9 14.2833 9.096 14.521 9.288 14.713C9.48 14.905 9.71733 15.0007 10 15C10.2833 15 10.521 14.904 10.713 14.712C10.905 14.52 11.0007 14.2827 11 14V11H14C14.2833 11 14.521 10.904 14.713 10.712C14.905 10.52 15.0007 10.2827 15 10C15 9.71667 14.904 9.479 14.712 9.287C14.52 9.095 14.2827 8.99933 14 9H11V6C11 5.71667 10.904 5.479 10.712 5.287C10.52 5.095 10.2827 4.99933 10 5C9.71667 5 9.479 5.096 9.287 5.288C9.095 5.48 8.99933 5.71733 9 6V9H6C5.71667 9 5.479 9.096 5.287 9.288C5.095 9.48 4.99933 9.71733 5 10C5 10.2833 5.096 10.521 5.288 10.713C5.48 10.905 5.71733 11.0007 6 11H9ZM10 20C8.61667 20 7.31667 19.7373 6.1 19.212C4.88333 18.6867 3.825 17.9743 2.925 17.075C2.025 16.175 1.31267 15.1167 0.788 13.9C0.263333 12.6833 0.000666667 11.3833 0 10C0 8.61667 0.262667 7.31667 0.788 6.1C1.31333 4.88333 2.02567 3.825 2.925 2.925C3.825 2.025 4.88333 1.31267 6.1 0.788C7.31667 0.263333 8.61667 0.000666667 10 0C11.3833 0 12.6833 0.262667 13.9 0.788C15.1167 1.31333 16.175 2.02567 17.075 2.925C17.975 3.825 18.6877 4.88333 19.213 6.1C19.7383 7.31667 20.0007 8.61667 20 10C20 11.3833 19.7373 12.6833 19.212 13.9C18.6867 15.1167 17.9743 16.175 17.075 17.075C16.175 17.975 15.1167 18.6877 13.9 19.213C12.6833 19.7383 11.3833 20.0007 10 20ZM10 18C12.2333 18 14.125 17.225 15.675 15.675C17.225 14.125 18 12.2333 18 10C18 7.76667 17.225 5.875 15.675 4.325C14.125 2.775 12.2333 2 10 2C7.76667 2 5.875 2.775 4.325 4.325C2.775 5.875 2 7.76667 2 10C2 12.2333 2.775 14.125 4.325 15.675C5.875 17.225 7.76667 18 10 18Z" 
    fill="#fff"
  />
</svg>
