<svg width="8" height="12" viewBox="0 0 8 12" fill="none" xmlns="http://www.w3.org/2000/svg">
  <path d="M1.29007 10.0876L5.17007 6.20762L1.29007 2.32762C1.19749 2.23503 1.12405 2.12512 1.07394 2.00416C1.02384 1.88319 0.998047 1.75355 0.998047 1.62262C0.998047 1.49169 1.02384 1.36204 1.07394 1.24107C1.12405 1.12011 1.19749 1.0102 1.29007 0.917616C1.38265 0.825034 1.49256 0.751594 1.61352 0.701489C1.73449 0.651384 1.86414 0.625595 1.99507 0.625595C2.126 0.625595 2.25565 0.651384 2.37661 0.701489C2.49757 0.751594 2.60749 0.825034 2.70007 0.917616L7.29007 5.50762C7.68007 5.89762 7.68007 6.52762 7.29007 6.91762L2.70007 11.5076C2.60755 11.6003 2.49767 11.6739 2.37669 11.724C2.25572 11.7742 2.12604 11.8001 1.99507 11.8001C1.8641 11.8001 1.73442 11.7742 1.61344 11.724C1.49247 11.6739 1.38258 11.6003 1.29007 11.5076C0.910068 11.1176 0.900068 10.4776 1.29007 10.0876Z" fill="black"/>
</svg>
