<svg width="32" height="32" viewBox="0 0 32 32" fill="none" xmlns="http://www.w3.org/2000/svg">
  <path d="M7.00005 8.39999L2.10005 13.3C1.91672 13.4833 1.68338 13.575 1.40005 13.575C1.11672 13.575 0.883382 13.4833 0.700048 13.3C0.516715 13.1167 0.425049 12.8833 0.425049 12.6C0.425049 12.3167 0.516715 12.0833 0.700048 11.9L5.60005 6.99999L0.700048 2.09999C0.516715 1.91665 0.425049 1.68332 0.425049 1.39999C0.425049 1.11665 0.516715 0.883321 0.700048 0.699987C0.883382 0.516654 1.11672 0.424988 1.40005 0.424988C1.68338 0.424988 1.91672 0.516654 2.10005 0.699987L7.00005 5.59999L11.9 0.699987C12.0834 0.516654 12.3167 0.424988 12.6 0.424988C12.8834 0.424988 13.1167 0.516654 13.3 0.699987C13.4834 0.883321 13.575 1.11665 13.575 1.39999C13.575 1.68332 13.4834 1.91665 13.3 2.09999L8.40005 6.99999L13.3 11.9C13.4834 12.0833 13.575 12.3167 13.575 12.6C13.575 12.8833 13.4834 13.1167 13.3 13.3C13.1167 13.4833 12.8834 13.575 12.6 13.575C12.3167 13.575 12.0834 13.4833 11.9 13.3L7.00005 8.39999Z" 
    fill="#FFF"
  />
</svg>
