<svg width="18" height="18" viewBox="0 0 18 18" fill="none" xmlns="http://www.w3.org/2000/svg">
<g clip-path="url(#clip0_502_598)">
<path d="M17.5794 9.1684C17.5794 8.43095 17.5196 7.8928 17.3901 7.33473H8.96912V10.6632H13.912C13.8124 11.4904 13.2743 12.7361 12.0784 13.5732L12.0616 13.6846L14.7242 15.7473L14.9086 15.7657C16.6028 14.201 17.5794 11.899 17.5794 9.1684Z" fill="#4285F4"/>
<path d="M8.96908 17.9382C11.3907 17.9382 13.4237 17.1409 14.9086 15.7657L12.0783 13.5732C11.321 14.1013 10.3044 14.4701 8.96908 14.4701C6.59726 14.4701 4.58422 12.9055 3.86662 10.743L3.76144 10.7519L0.992871 12.8945L0.956665 12.9952C2.43157 15.925 5.46113 17.9382 8.96908 17.9382Z" fill="#34A853"/>
<path d="M3.86663 10.743C3.67729 10.1849 3.56771 9.58693 3.56771 8.96909C3.56771 8.35119 3.67729 7.75327 3.85667 7.1952L3.85166 7.07635L1.0484 4.89931L0.95668 4.94293C0.348802 6.15876 0 7.52408 0 8.96909C0 10.4141 0.348802 11.7794 0.95668 12.9952L3.86663 10.743Z" fill="#FBBC05"/>
<path d="M8.96908 3.46802C10.6532 3.46802 11.7893 4.19551 12.4371 4.80346L14.9684 2.33196C13.4138 0.886946 11.3907 0 8.96908 0C5.46114 0 2.43157 2.01305 0.956665 4.94292L3.85666 7.19519C4.58422 5.03265 6.59727 3.46802 8.96908 3.46802Z" fill="#EB4335"/>
</g>
<defs>
<clipPath id="clip0_502_598">
<rect width="17.5878" height="18" fill="white"/>
</clipPath>
</defs>
</svg>
